<svg width="32" height="32" viewBox="0 0 32 32" fill="none" xmlns="http://www.w3.org/2000/svg">
<g clip-path="url(#clip0_659_557)">
<path d="M15.9993 10.666C14.5849 10.666 13.2283 11.2279 12.2281 12.2281C11.2279 13.2283 10.666 14.5849 10.666 15.9993C10.666 17.4138 11.2279 18.7704 12.2281 19.7706C13.2283 20.7708 14.5849 21.3327 15.9993 21.3327C17.4138 21.3327 18.7704 20.7708 19.7706 19.7706C20.7708 18.7704 21.3327 17.4138 21.3327 15.9993C21.3327 14.5849 20.7708 13.2283 19.7706 12.2281C18.7704 11.2279 17.4138 10.666 15.9993 10.666Z" fill="black" fill-opacity="0.5"/>
<path fill-rule="evenodd" clip-rule="evenodd" d="M7.41809 1.36679C13.1223 0.734507 18.879 0.734507 24.5832 1.36679C27.6995 1.71469 30.2119 4.16802 30.5779 7.29582C31.2543 13.0799 31.2543 18.9231 30.5779 24.7071C30.2119 27.8349 27.6995 30.2882 24.5849 30.6378C18.8801 31.2702 13.1229 31.2702 7.41809 30.6378C4.30179 30.2882 1.78938 27.8349 1.42343 24.7087C0.746878 18.9241 0.746878 13.0804 1.42343 7.29582C1.78938 4.16802 4.30179 1.71469 7.41809 1.36679ZM24.2058 6.15531C23.7706 6.15531 23.3532 6.3282 23.0454 6.63595C22.7376 6.9437 22.5648 7.3611 22.5648 7.79633C22.5648 8.23156 22.7376 8.64896 23.0454 8.95671C23.3532 9.26446 23.7706 9.43736 24.2058 9.43736C24.641 9.43736 25.0584 9.26446 25.3662 8.95671C25.6739 8.64896 25.8468 8.23156 25.8468 7.79633C25.8468 7.3611 25.6739 6.9437 25.3662 6.63595C25.0584 6.3282 24.641 6.15531 24.2058 6.15531ZM8.20579 16.0015C8.20579 13.9341 9.02703 11.9515 10.4889 10.4897C11.9507 9.02783 13.9333 8.20659 16.0007 8.20659C18.068 8.20659 20.0506 9.02783 21.5125 10.4897C22.9743 11.9515 23.7955 13.9341 23.7955 16.0015C23.7955 18.0688 22.9743 20.0514 21.5125 21.5133C20.0506 22.9751 18.068 23.7963 16.0007 23.7963C13.9333 23.7963 11.9507 22.9751 10.4889 21.5133C9.02703 20.0514 8.20579 18.0688 8.20579 16.0015Z" fill="black" fill-opacity="0.5"/>
</g>
<defs>
<clipPath id="clip0_659_557">
<rect width="32" height="32" fill="white"/>
</clipPath>
</defs>
</svg>
