<svg width="31" height="31" viewBox="0 0 31 31" fill="none" xmlns="http://www.w3.org/2000/svg">
<g clip-path="url(#clip0_659_553)">
<path d="M28.0938 0H2.90625C1.30781 0 0 1.30781 0 2.90625V28.0938C0 29.6922 1.30781 31 2.90625 31H28.0938C29.6922 31 31 29.6922 31 28.0938V2.90625C31 1.30781 29.6922 0 28.0938 0ZM25.1081 21.7L22.2735 21.7426C22.2735 21.7426 21.6612 21.8647 20.863 21.3125C19.8032 20.5859 18.8034 18.6911 18.0226 18.9391C17.236 19.1871 17.2593 20.8882 17.2593 20.8882C17.2593 20.8882 17.2651 21.2524 17.0829 21.4443C16.8892 21.6554 16.5017 21.6981 16.5017 21.6981H15.2365C15.2365 21.6981 12.4387 21.8686 9.97425 19.2994C7.285 16.5017 4.9135 10.9508 4.9135 10.9508C4.9135 10.9508 4.774 10.5865 4.92513 10.4121C5.09369 10.2126 5.549 10.2009 5.549 10.2009L8.58313 10.1835C8.58313 10.1835 8.86794 10.2319 9.07331 10.3831C9.24381 10.5051 9.33294 10.7396 9.33294 10.7396C9.33294 10.7396 9.82313 11.9815 10.4722 13.1014C11.7374 15.2869 12.3302 15.7654 12.7604 15.5349C13.3842 15.1958 13.1963 12.4407 13.1963 12.4407C13.1963 12.4407 13.2079 11.4409 12.8824 10.9992C12.6286 10.6543 12.1501 10.5516 11.9447 10.5264C11.7742 10.5013 12.0532 10.1079 12.4174 9.92775C12.9619 9.66038 13.9248 9.64294 15.0641 9.65456C15.9476 9.66037 16.2091 9.72044 16.554 9.79988C17.6022 10.0537 17.2437 11.0283 17.2437 13.3668C17.2437 14.1186 17.1101 15.1706 17.6487 15.5155C17.8792 15.6666 18.4469 15.5388 19.871 13.1246C20.5433 11.9796 21.0509 10.6369 21.0509 10.6369C21.0509 10.6369 21.1594 10.3947 21.3299 10.292C21.5063 10.1893 21.7426 10.2203 21.7426 10.2203L24.9337 10.2029C24.9337 10.2029 25.8908 10.0886 26.0478 10.5245C26.2105 10.9779 25.6912 12.0377 24.3892 13.7756C22.2522 16.6276 22.01 16.3602 23.7906 18.0071C25.4859 19.5823 25.8366 20.3496 25.8986 20.4464C26.5883 21.6089 25.1119 21.7 25.1119 21.7H25.1081Z" fill="black" fill-opacity="0.5"/>
</g>
<defs>
<clipPath id="clip0_659_553">
<rect width="31" height="31" fill="white"/>
</clipPath>
</defs>
</svg>
